# Blender 3.6.4
# www.blender.org
mtllib grenade.mtl
o Cube
v -0.032756 -0.062593 0.095781
v -0.095781 -0.062593 0.032756
v -0.095781 0.457280 0.032756
v -0.032756 0.457280 0.095781
v -0.095781 -0.062593 -0.032756
v -0.032756 -0.062593 -0.095781
v -0.032756 0.457280 -0.095781
v -0.095781 0.457280 -0.032756
v 0.095781 -0.062593 0.032756
v 0.032756 -0.062593 0.095781
v 0.032756 0.457280 0.095781
v 0.095781 0.457280 0.032756
v 0.032756 -0.062593 -0.095781
v 0.095781 -0.062593 -0.032756
v 0.095781 0.457280 -0.032756
v 0.032756 0.457280 -0.095781
v -0.035526 0.467882 0.103881
v -0.103881 0.467882 0.035526
v -0.103881 0.467882 -0.035526
v -0.035526 0.467882 -0.103881
v 0.035526 0.467882 -0.103881
v 0.103881 0.467882 -0.035526
v 0.103881 0.467882 0.035526
v 0.035526 0.467882 0.103881
v -0.035526 0.788145 0.103881
v -0.103881 0.788145 0.035526
v -0.103881 0.788145 -0.035526
v -0.035526 0.788145 -0.103881
v 0.035526 0.788145 -0.103881
v 0.103881 0.788145 -0.035526
v 0.103881 0.788145 0.035526
v 0.035526 0.788145 0.103881
vn -0.0000 -0.0000 1.0000
vn 1.0000 -0.0000 -0.0000
vn -0.5725 -0.5869 -0.5725
vn -1.0000 -0.0000 -0.0000
vn -0.0000 -0.0000 -1.0000
vn -0.7071 -0.0000 0.7071
vn -0.7071 -0.0000 -0.7071
vn 0.7071 -0.0000 -0.7071
vn 0.7071 -0.0000 0.7071
vn -0.0000 -1.0000 -0.0000
vn -0.5725 -0.5869 0.5725
vn 0.7946 -0.6071 -0.0000
vn -0.7946 -0.6071 -0.0000
vn -0.0000 -0.6071 -0.7946
vn 0.5725 -0.5869 0.5725
vn -0.0000 -0.6071 0.7946
vn 0.5725 -0.5869 -0.5725
vn -0.0000 1.0000 -0.0000
vt 0.272451 0.906760
vt 0.544803 0.906760
vt 0.544803 0.999900
vt 0.272451 0.999900
vt 0.272451 0.634408
vt 0.544803 0.634408
vt 0.544803 0.727549
vt 0.272451 0.727549
vt 0.544803 0.362057
vt 0.544803 0.182846
vt 0.272451 0.089705
vt 0.544803 0.089705
vt 0.272451 0.182846
vt 0.272451 0.362057
vt 0.544803 0.455197
vt 0.272451 0.455197
vt 0.272451 0.000100
vt 0.544803 0.000100
vt 0.000100 0.634408
vt 0.089705 0.544803
vt 0.182846 0.544803
vt 0.182846 0.817154
vt 0.089705 0.817154
vt 0.000100 0.727549
vt 0.545002 0.192681
vt 0.545002 0.065960
vt 0.610862 0.000100
vt 0.737584 0.000100
vt 0.803444 0.065960
vt 0.803444 0.192681
vt 0.737583 0.258542
vt 0.610862 0.258542
s 0
f 10/1/1 11/2/1 4/3/1 1/4/1
f 14/5/2 15/6/2 12/7/2 9/8/2
f 7/9/3 8/10/3 19/10/3 20/9/3
f 2/11/4 3/12/4 8/10/4 5/13/4
f 6/14/5 7/9/5 16/15/5 13/16/5
f 1/17/6 4/18/6 3/12/6 2/11/6
f 7/9/7 6/14/7 5/13/7 8/10/7
f 15/6/8 14/5/8 13/16/8 16/15/8
f 11/2/9 10/1/9 9/8/9 12/7/9
f 5/19/10 6/20/10 13/21/10 14/5/10 9/8/10 10/22/10 1/23/10 2/24/10
f 22/6/8 21/15/8 29/15/8 30/6/8
f 3/12/11 4/18/11 17/18/11 18/12/11
f 12/7/12 15/6/12 22/6/12 23/7/12
f 8/10/13 3/12/13 18/12/13 19/10/13
f 16/15/14 7/9/14 20/9/14 21/15/14
f 11/2/15 12/7/15 23/7/15 24/2/15
f 4/3/16 11/2/16 24/2/16 17/3/16
f 15/6/17 16/15/17 21/15/17 22/6/17
f 30/25/18 29/26/18 28/27/18 27/28/18 26/29/18 25/30/18 32/31/18 31/32/18
f 18/12/6 17/18/6 25/18/6 26/12/6
f 21/15/5 20/9/5 28/9/5 29/15/5
f 17/3/1 24/2/1 32/2/1 25/3/1
f 24/2/9 23/7/9 31/7/9 32/2/9
f 20/9/7 19/10/7 27/10/7 28/9/7
f 23/7/2 22/6/2 30/6/2 31/7/2
f 19/10/4 18/12/4 26/12/4 27/10/4
