# Blender 3.6.4
# www.blender.org
mtllib med.mtl
o Cube.001
v -0.604740 -0.063210 1.131257
v -0.604740 0.338702 1.131257
v -0.604740 -0.063210 1.006375
v -0.604740 0.338702 1.006375
v 0.604740 -0.063210 1.131257
v 0.604740 0.338702 1.131257
v 0.604740 -0.063210 1.006375
v 0.604740 0.338702 1.006375
v -0.200956 0.742486 1.131257
v 0.200956 0.742486 1.131257
v -0.200956 0.742486 1.006375
v 0.200956 0.742486 1.006375
v -0.200956 -0.466994 1.131257
v 0.200956 -0.466994 1.131257
v -0.200956 -0.466994 1.006375
v 0.200956 -0.466994 1.006375
v -1.810896 -1.000000 0.900281
v -1.835857 1.160009 0.912691
v -1.810896 -1.000000 -0.900281
v -1.835857 1.160009 -0.912691
v 1.810896 -1.000000 0.900281
v 1.835857 1.160009 0.912691
v 1.810896 -1.000000 -0.900281
v 1.835857 1.160009 -0.912691
v -1.673855 -0.699947 -1.051666
v -1.673855 -0.699947 1.051666
v 1.673855 -0.699947 -1.051666
v 1.673855 -0.699947 1.051666
v -1.673855 0.829841 1.051666
v -1.673855 0.829841 -1.051666
v 1.673855 0.829841 -1.051666
v 1.673855 0.829841 1.051666
v -2.011477 -0.870107 1.000000
v -2.011477 1.000000 1.000000
v -2.011477 1.000000 -1.000000
v -2.011477 -0.870107 -1.000000
v 2.011477 -0.870107 -1.000000
v 2.011477 1.000000 -1.000000
v 2.011477 1.000000 1.000000
v 2.011477 -0.870107 1.000000
vn -1.0000 -0.0000 -0.0000
vn -0.0000 -0.0000 -1.0000
vn 1.0000 -0.0000 -0.0000
vn -0.0000 -0.0000 1.0000
vn -0.0000 -1.0000 -0.0000
vn -0.0000 1.0000 -0.0000
vn -0.5436 -0.8394 -0.0000
vn -0.0000 -0.6089 -0.7932
vn 0.5436 -0.8394 -0.0000
vn -0.0000 -0.6089 0.7932
vn -0.6735 0.7392 -0.0000
vn -0.0000 0.4790 -0.8778
vn 0.6735 0.7392 -0.0000
vn -0.0000 0.4790 0.8778
vn -0.1513 -0.0000 0.9885
vn -0.1513 -0.0000 -0.9885
vn -0.0000 -0.2905 -0.9569
vn -0.0000 0.2905 -0.9569
vn 0.1513 -0.0000 -0.9885
vn 0.1513 -0.0000 0.9885
vn -0.0000 -0.2905 0.9569
vn -0.0000 0.2905 0.9569
vt 0.125065 0.000130
vt 0.250000 0.000130
vt 0.250000 0.125065
vt 0.125065 0.125065
vt 0.250000 0.250000
vt 0.125065 0.250000
vt 0.250000 0.374935
vt 0.125065 0.374935
vt 0.752565 0.126396
vt 0.877500 0.126396
vt 0.877500 0.251331
vt 0.752565 0.251331
vt 0.000130 0.250000
vt 0.000130 0.374935
vt 0.374935 0.250000
vt 0.374935 0.374935
vt 0.375195 0.250000
vt 0.375195 0.125065
vt 0.500130 0.125065
vt 0.500130 0.250000
vt 0.625065 0.125065
vt 0.625065 0.250000
vt 0.750000 0.125065
vt 0.750000 0.250000
vt 0.874935 0.125065
vt 0.874935 0.250000
vt 0.625065 0.374935
vt 0.750000 0.374935
vt 0.625065 0.000130
vt 0.750000 0.000130
vt 0.125065 0.500130
vt 0.250000 0.500130
vt 0.250000 0.625065
vt 0.125065 0.625065
vt 0.138189 0.637336
vt 0.236876 0.637336
vt 0.236876 0.737729
vt 0.138189 0.737729
vt 0.125065 0.750000
vt 0.250000 0.750000
vt 0.250000 0.874935
vt 0.125065 0.874935
vt 0.138189 0.887206
vt 0.236876 0.887206
vt 0.236876 0.987599
vt 0.138189 0.987599
vt 0.006359 0.756229
vt 0.118836 0.756229
vt 0.118836 0.868706
vt 0.006359 0.868706
vt 0.255454 0.755454
vt 0.369481 0.755454
vt 0.369481 0.869481
vt 0.255454 0.869481
vt 0.000130 0.874935
vt 0.000130 0.750000
vt 0.374935 0.750000
vt 0.374935 0.874935
vt 0.250000 0.999870
vt 0.125065 0.999870
s 0
f 1/1/1 2/2/1 4/3/1 3/4/1
f 3/4/2 4/3/2 8/5/2 7/6/2
f 7/6/3 8/5/3 6/7/3 5/8/3
f 5/9/4 6/10/4 2/11/4 1/12/4
f 3/13/5 7/6/5 5/8/5 1/14/5
f 8/5/6 4/15/6 2/16/6 6/7/6
f 9/17/6 10/18/6 12/19/6 11/20/6
f 11/20/2 12/19/2 16/21/2 15/22/2
f 15/22/5 16/21/5 14/23/5 13/24/5
f 13/24/4 14/23/4 10/25/4 9/26/4
f 11/27/1 15/22/1 13/24/1 9/28/1
f 16/21/3 12/29/3 10/30/3 14/23/3
f 33/31/1 34/32/1 35/33/1 36/34/1
f 25/35/2 30/36/2 31/37/2 27/38/2
f 37/39/3 38/40/3 39/41/3 40/42/3
f 28/43/4 32/44/4 29/45/4 26/46/4
f 19/47/5 23/48/5 21/49/5 17/50/5
f 24/51/6 20/52/6 18/53/6 22/54/6
f 19/47/7 17/50/7 33/55/7 36/56/7
f 23/48/8 19/47/8 36/56/8 37/39/8
f 21/49/9 23/48/9 37/39/9 40/42/9
f 17/50/10 21/49/10 40/42/10 33/55/10
f 18/53/11 20/52/11 35/57/11 34/58/11
f 20/52/12 24/51/12 38/40/12 35/57/12
f 24/51/13 22/54/13 39/41/13 38/40/13
f 22/54/14 18/53/14 34/58/14 39/41/14
f 26/46/15 29/45/15 34/59/15 33/60/15
f 30/36/16 25/35/16 36/34/16 35/33/16
f 25/35/17 27/38/17 37/39/17 36/34/17
f 31/37/18 30/36/18 35/33/18 38/40/18
f 27/38/19 31/37/19 38/40/19 37/39/19
f 32/44/20 28/43/20 40/42/20 39/41/20
f 28/43/21 26/46/21 33/60/21 40/42/21
f 29/45/22 32/44/22 39/41/22 34/59/22
